<?xml version="1.0" encoding="UTF-8" standalone="no"?>
<!-- Created with Inkscape (http://www.inkscape.org/) -->
<svg
   xmlns:dc="http://purl.org/dc/elements/1.1/"
   xmlns:cc="http://creativecommons.org/ns#"
   xmlns:rdf="http://www.w3.org/1999/02/22-rdf-syntax-ns#"
   xmlns:svg="http://www.w3.org/2000/svg"
   xmlns="http://www.w3.org/2000/svg"
   xmlns:sodipodi="http://sodipodi.sourceforge.net/DTD/sodipodi-0.dtd"
   xmlns:inkscape="http://www.inkscape.org/namespaces/inkscape"
   width="67.330635"
   height="77.702766"
   id="svg3030"
   sodipodi:version="0.32"
   inkscape:version="0.46"
   version="1.0"
   sodipodi:docname="Leaf icon 09.svg"
   inkscape:output_extension="org.inkscape.output.svg.inkscape">
  <defs
     id="defs3032">
    <inkscape:perspective
       sodipodi:type="inkscape:persp3d"
       inkscape:vp_x="0 : 526.18109 : 1"
       inkscape:vp_y="0 : 1000 : 0"
       inkscape:vp_z="744.09448 : 526.18109 : 1"
       inkscape:persp3d-origin="372.04724 : 350.78739 : 1"
       id="perspective3038" />
  </defs>
  <sodipodi:namedview
     id="base"
     pagecolor="#ffffff"
     bordercolor="#666666"
     borderopacity="1.0"
     gridtolerance="10000"
     guidetolerance="10"
     objecttolerance="10"
     inkscape:pageopacity="0.0"
     inkscape:pageshadow="2"
     inkscape:zoom="0.35"
     inkscape:cx="375"
     inkscape:cy="520"
     inkscape:document-units="px"
     inkscape:current-layer="layer1"
     showgrid="false"
     inkscape:window-width="640"
     inkscape:window-height="718"
     inkscape:window-x="632"
     inkscape:window-y="249" />
  <metadata
     id="metadata3035">
    <rdf:RDF>
      <cc:Work
         rdf:about="">
        <dc:format>image/svg+xml</dc:format>
        <dc:type
           rdf:resource="http://purl.org/dc/dcmitype/StillImage" />
      </cc:Work>
    </rdf:RDF>
  </metadata>
  <g
     inkscape:label="Layer 1"
     inkscape:groupmode="layer"
     id="layer1"
     transform="translate(-460.6204,-356.36795)">
    <g
       transform="matrix(1.2500001,0,0,1.2500001,484.65291,356.36795)"
       style="fill:#82ff00;fill-rule:nonzero;stroke:none;stroke-width:0.642259;stroke-linecap:butt;stroke-linejoin:miter;stroke-dasharray:none"
       id="g108">
      <path
         d="M 7.72195,0 C 7.72195,0 15.7391,11.0342 15.6635,19.756 C 15.5886,28.4791 8.15124,33.0909 8.15124,33.0909 C 8.15124,33.0909 0.600304,28.7559 0.298102,20.0411 C 0,11.3243 7.72195,0 7.72195,0 z"
         id="path110" />
    </g>
    <g
       transform="matrix(1.2500001,0,0,1.2500001,460.6204,387.94796)"
       style="fill:#82ff00;fill-rule:nonzero;stroke:none;stroke-width:0.642259;stroke-linecap:butt;stroke-linejoin:miter;stroke-dasharray:none"
       id="g112">
      <path
         d="M 0,2.53895 C 0,2.53895 12.0512,0 18.2832,4.55794 C 24.5176,9.11728 24.0116,19.0998 24.0116,19.0998 C 24.0116,19.0998 17.0141,24.6046 10.5935,20.4367 C 4.1746,16.2645 0,2.53895 0,2.53895 z"
         id="path114" />
    </g>
    <g
       transform="matrix(1.2500001,0,0,1.2500001,496.84291,387.94796)"
       style="fill:#82ff00;fill-rule:nonzero;stroke:none;stroke-width:0.642259;stroke-linecap:butt;stroke-linejoin:miter;stroke-dasharray:none"
       id="g116">
      <path
         d="M 6.60392,4.55794 C 0.368967,9.11728 0.876736,19.0998 0.876736,19.0998 C 0.876736,19.0998 0,36.8982 0,36.8982 C 0,36.8982 1.63107,36.8982 1.63107,36.8982 C 1.63107,36.8982 1.19651,24.4502 2.93475,23.2859 C 4.67183,22.1174 8.41596,21.9769 8.41596,21.9769 C 8.41596,21.9769 8.41362,21.9762 8.41362,21.9762 C 10.2795,22.086 12.313,21.7205 14.2925,20.4367 C 20.7131,16.2645 24.8865,2.53895 24.8865,2.53895 C 24.8865,2.53895 12.8354,0 6.60392,4.55794 z"
         id="path118" />
    </g>
  </g>
</svg>
